<?xml version="1.0" encoding="UTF-8" standalone="no"?>
<!DOCTYPE svg PUBLIC "-//W3C//DTD SVG 1.1//EN"
 "http://www.w3.org/Graphics/SVG/1.1/DTD/svg11.dtd">
<!-- Generated by graphviz version 2.40.1 (20161225.0304)
 -->
<!-- Title: Cart Pages: 1 -->
<svg width="242pt" height="191pt"
 viewBox="0.00 0.00 241.80 191.00" xmlns="http://www.w3.org/2000/svg" xmlns:xlink="http://www.w3.org/1999/xlink">
<g id="graph0" class="graph" transform="scale(1 1) rotate(0) translate(4 187)">
<title>Cart</title>
<polygon fill="#ffffff" stroke="transparent" points="-4,4 -4,-187 237.7959,-187 237.7959,4 -4,4"/>
<!-- order_items -->
<g id="node1" class="node">
<title>order_items</title>
<polygon fill="none" stroke="#000000" points="71.6362,-73.5 71.6362,-109.5 148.3638,-109.5 148.3638,-73.5 71.6362,-73.5"/>
<text text-anchor="middle" x="110" y="-89.5767" font-family="Verdana" font-size="10.00" fill="#000000">order_items</text>
</g>
<!-- orders -->
<g id="node2" class="node">
<title>orders</title>
<polygon fill="none" stroke="#000000" points="41,-.5 41,-36.5 95,-36.5 95,-.5 41,-.5"/>
<text text-anchor="middle" x="67.501" y="-16.5767" font-family="Verdana" font-size="10.00" fill="#000000">orders</text>
</g>
<!-- order_items&#45;&gt;orders -->
<g id="edge1" class="edge">
<title>order_items&#45;&gt;orders</title>
<path fill="none" stroke="#000000" d="M99.618,-73.4551C94.7718,-65.0319 88.9018,-54.8292 83.5416,-45.5128"/>
<polygon fill="#000000" stroke="#000000" points="86.4289,-43.5127 78.4082,-36.5904 80.3614,-47.0036 86.4289,-43.5127"/>
</g>
<!-- items -->
<g id="node3" class="node">
<title>items</title>
<polygon fill="none" stroke="#000000" points="128,-146.5 128,-182.5 182,-182.5 182,-146.5 128,-146.5"/>
<text text-anchor="middle" x="154.7891" y="-162.5767" font-family="Verdana" font-size="10.00" fill="#000000">items</text>
</g>
<!-- items&#45;&gt;order_items -->
<g id="edge2" class="edge">
<title>items&#45;&gt;order_items</title>
<path fill="none" stroke="#000000" d="M143.8764,-146.4551C138.6299,-137.9441 132.2636,-127.6165 126.4724,-118.2219"/>
<polygon fill="#000000" stroke="#000000" points="129.3785,-116.2663 121.1516,-109.5904 123.4197,-119.9396 129.3785,-116.2663"/>
</g>
<!-- categories -->
<g id="node4" class="node">
<title>categories</title>
<polygon fill="none" stroke="#000000" points="166.2041,-73.5 166.2041,-109.5 233.7959,-109.5 233.7959,-73.5 166.2041,-73.5"/>
<text text-anchor="middle" x="200" y="-89.5767" font-family="Verdana" font-size="10.00" fill="#000000">categories</text>
</g>
<!-- items&#45;&gt;categories -->
<g id="edge3" class="edge">
<title>items&#45;&gt;categories</title>
<path fill="none" stroke="#000000" d="M166.1236,-146.4551C171.3701,-137.9441 177.7364,-127.6165 183.5276,-118.2219"/>
<polygon fill="#000000" stroke="#000000" points="186.5803,-119.9396 188.8484,-109.5904 180.6215,-116.2663 186.5803,-119.9396"/>
</g>
<!-- users -->
<g id="node5" class="node">
<title>users</title>
<polygon fill="none" stroke="#000000" points="0,-73.5 0,-109.5 54,-109.5 54,-73.5 0,-73.5"/>
<text text-anchor="middle" x="26.9863" y="-89.5767" font-family="Verdana" font-size="10.00" fill="#000000">users</text>
</g>
<!-- users&#45;&gt;orders -->
<g id="edge4" class="edge">
<title>users&#45;&gt;orders</title>
<path fill="none" stroke="#000000" d="M37.1348,-73.4551C41.8657,-65.0319 47.5959,-54.8292 52.8285,-45.5128"/>
<polygon fill="#000000" stroke="#000000" points="55.9943,-47.0233 57.8397,-36.5904 49.891,-43.5954 55.9943,-47.0233"/>
</g>
</g>
</svg>
